<svg
  id="svg"
  xmlns="http://www.w3.org/2000/svg"
  xmlns:xlink="http://www.w3.org/1999/xlink"
  width="400"
  height="104"
  viewBox="0 0 400 104"
>
<g id="svgg">
<path id="path0" d="M64.687 2.947 C 52.087 3.811,41.017 8.620,32.494 16.936 C 31.449 17.954,30.560 18.753,30.517 18.710 C 30.387 18.580,33.241 15.827,35.313 14.084 C 38.150 11.697,42.051 9.128,45.032 7.683 C 48.593 5.957,53.759 4.121,57.127 3.384 C 58.273 3.134,55.822 3.279,54.212 3.558 C 49.178 4.427,46.787 5.062,43.429 6.420 C 38.099 8.575,31.588 12.272,30.022 14.033 C 29.843 14.233,29.212 14.776,28.618 15.240 C 27.318 16.254,23.642 19.895,22.852 20.950 C 22.541 21.366,21.935 22.074,21.505 22.522 C 21.075 22.971,20.005 24.445,19.127 25.798 L 17.530 28.257 17.522 54.738 L 17.514 81.220 18.944 83.429 C 23.138 89.909,29.487 95.997,35.361 99.170 C 36.048 99.541,36.755 99.966,36.933 100.114 C 37.111 100.262,37.764 100.637,38.384 100.947 L 39.510 101.512 50.911 101.483 C 57.181 101.468,61.971 101.378,61.555 101.284 C 61.108 101.183,61.506 101.167,62.527 101.244 C 64.760 101.413,71.034 101.393,71.210 101.216 C 71.285 101.141,71.695 101.093,72.120 101.108 L 72.894 101.137 72.138 101.296 C 71.722 101.383,74.387 101.468,78.060 101.483 L 84.737 101.512 86.807 100.397 C 87.945 99.784,89.145 99.145,89.473 98.976 C 93.305 97.009,100.559 90.163,104.178 85.097 C 104.305 84.919,103.393 85.752,102.151 86.948 C 98.957 90.024,96.616 91.866,93.089 94.082 C 90.521 95.694,84.767 98.446,84.507 98.186 C 84.441 98.120,84.571 98.010,84.796 97.942 C 85.841 97.623,91.653 94.649,93.213 93.634 C 100.535 88.871,106.121 82.815,110.351 75.053 C 111.780 72.431,112.390 71.591,111.447 73.542 C 111.218 74.017,111.026 74.481,111.022 74.572 C 111.010 74.859,108.787 78.706,108.380 79.144 C 107.850 79.716,107.873 80.816,108.423 81.159 C 108.758 81.368,108.855 81.663,108.855 82.470 C 108.855 83.300,108.964 83.612,109.395 84.017 C 109.692 84.296,109.935 84.739,109.935 85.000 C 109.935 85.262,110.081 85.597,110.259 85.745 C 110.437 85.893,110.583 86.294,110.583 86.636 C 110.583 86.977,110.657 87.257,110.748 87.257 C 110.838 87.257,111.510 87.840,112.241 88.553 C 112.972 89.266,113.755 89.849,113.983 89.849 C 114.210 89.849,114.624 90.092,114.903 90.389 C 115.182 90.686,115.621 90.929,115.879 90.929 C 116.137 90.929,116.524 91.123,116.739 91.361 C 117.345 92.031,128.443 92.031,129.050 91.361 C 129.360 91.018,129.715 90.929,130.773 90.929 C 131.916 90.929,132.179 90.852,132.613 90.389 C 133.019 89.957,133.330 89.849,134.163 89.849 C 134.945 89.849,135.205 89.768,135.205 89.525 C 135.205 89.246,135.913 89.201,140.279 89.201 C 145.119 89.201,145.365 89.181,145.622 88.769 C 145.844 88.414,146.126 88.337,147.211 88.337 C 148.255 88.337,148.610 88.247,148.920 87.905 C 149.205 87.590,149.585 87.473,150.324 87.473 C 151.063 87.473,151.443 87.356,151.728 87.041 C 151.943 86.803,152.307 86.609,152.536 86.609 C 153.125 86.609,157.661 82.121,157.812 81.389 C 157.877 81.073,158.211 80.544,158.555 80.215 L 159.179 79.617 159.179 81.023 C 159.179 82.245,159.250 82.497,159.719 82.937 C 160.016 83.216,160.259 83.660,160.259 83.924 C 160.259 84.187,160.405 84.459,160.583 84.527 C 160.786 84.605,160.907 84.936,160.907 85.414 C 160.907 85.948,161.004 86.177,161.231 86.177 C 161.409 86.177,161.555 86.289,161.555 86.425 C 161.555 86.732,162.961 88.121,163.272 88.121 C 163.397 88.121,163.499 88.234,163.499 88.372 C 163.499 88.839,164.854 89.849,165.482 89.849 C 165.879 89.849,166.091 89.961,166.091 90.173 C 166.091 90.386,166.304 90.497,166.716 90.497 C 167.101 90.497,167.537 90.703,167.850 91.033 C 168.230 91.433,168.584 91.570,169.250 91.573 C 169.775 91.575,170.252 91.710,170.410 91.901 C 170.809 92.381,179.083 92.381,179.482 91.901 C 179.643 91.707,180.115 91.577,180.658 91.577 C 181.347 91.577,181.688 91.447,182.073 91.037 C 182.352 90.740,182.784 90.497,183.033 90.497 C 183.967 90.497,188.121 85.984,188.121 84.969 C 188.121 84.316,188.257 83.965,188.655 83.591 C 189.170 83.107,189.192 82.974,189.249 79.935 C 189.329 75.710,189.721 75.832,189.800 80.107 C 189.847 82.626,189.929 83.383,190.178 83.590 C 190.378 83.756,190.497 84.241,190.497 84.893 C 190.497 85.744,190.575 85.957,190.931 86.070 C 191.170 86.146,191.513 86.492,191.693 86.840 C 191.873 87.188,192.114 87.473,192.230 87.473 C 192.346 87.473,192.441 87.746,192.441 88.081 C 192.441 88.814,193.433 89.849,194.137 89.849 C 194.403 89.849,194.846 90.092,195.121 90.389 C 195.399 90.689,195.863 90.929,196.165 90.929 C 196.463 90.929,196.828 91.075,196.976 91.253 C 197.378 91.737,206.864 91.737,207.049 91.253 C 207.142 91.010,207.531 90.929,208.595 90.929 C 210.494 90.929,211.141 90.420,210.672 89.296 C 210.196 88.157,210.269 87.905,211.075 87.905 C 211.737 87.905,212.569 88.316,213.067 88.890 C 213.494 89.382,215.119 89.012,215.119 88.422 C 215.119 87.716,215.954 87.727,216.807 88.445 C 217.639 89.145,218.495 89.145,219.045 88.445 C 219.583 87.761,220.245 87.761,221.254 88.445 C 222.368 89.201,223.909 89.213,224.096 88.467 C 224.218 87.979,224.297 87.956,225.450 88.059 C 226.504 88.154,226.731 88.106,227.085 87.713 C 227.312 87.462,227.708 87.257,227.966 87.257 C 228.223 87.257,228.653 87.025,228.919 86.741 C 229.186 86.457,229.689 86.168,230.037 86.098 C 230.405 86.025,230.670 85.834,230.670 85.643 C 230.670 85.461,230.818 85.313,231.000 85.313 C 231.182 85.313,231.421 85.094,231.529 84.827 L 231.727 84.341 231.872 84.827 C 231.951 85.094,232.150 85.313,232.315 85.313 C 232.479 85.313,232.613 85.428,232.613 85.569 C 232.613 85.709,233.179 86.365,233.870 87.027 C 235.585 88.668,236.008 88.985,236.478 88.985 C 236.701 88.985,236.933 89.179,236.996 89.417 C 237.240 90.350,238.360 89.981,238.638 88.877 C 239.012 87.395,240.632 88.003,240.688 89.647 C 240.710 90.312,241.453 91.330,241.932 91.354 C 242.009 91.358,242.203 90.607,242.364 89.687 C 242.806 87.159,244.677 87.407,244.730 90.001 L 244.751 91.037 245.018 89.679 C 245.354 87.976,245.544 87.768,246.373 88.196 C 247.405 88.730,247.580 89.079,247.471 90.389 L 247.373 91.577 248.079 91.577 C 248.760 91.577,248.790 91.539,248.916 90.551 C 249.219 88.178,249.238 88.121,249.740 88.128 C 250.828 88.144,251.404 89.108,251.404 90.915 C 251.404 92.890,252.131 92.824,253.012 90.767 C 254.157 88.095,254.699 87.692,256.137 88.435 C 256.936 88.848,257.377 89.839,257.566 91.641 C 257.767 93.556,258.342 93.641,258.568 91.790 C 259.140 87.095,260.003 86.878,261.774 90.983 C 262.928 93.659,263.173 93.682,262.969 91.091 C 262.882 89.992,262.796 88.850,262.777 88.553 C 262.736 87.899,263.410 87.726,264.402 88.137 C 265.177 88.458,265.441 89.071,265.448 90.565 L 265.452 91.685 265.846 90.821 C 266.910 88.486,269.033 87.252,270.315 88.222 C 270.919 88.679,271.058 88.629,271.058 87.956 C 271.058 87.545,271.209 87.293,271.544 87.146 C 271.872 87.002,272.052 86.712,272.096 86.254 C 272.133 85.880,272.351 85.403,272.582 85.194 C 272.946 84.865,273.002 84.519,273.002 82.598 C 273.002 81.017,273.080 80.356,273.272 80.292 C 273.459 80.230,273.564 79.506,273.614 77.952 C 273.697 75.380,274.082 74.442,274.082 76.813 C 274.082 78.060,274.160 78.405,274.514 78.726 C 274.814 78.998,274.946 79.391,274.946 80.017 C 274.946 80.699,275.077 81.042,275.486 81.425 C 276.011 81.918,276.026 82.016,276.026 84.879 L 276.026 87.825 276.783 88.186 C 277.856 88.698,278.344 89.630,278.520 91.504 C 278.622 92.590,278.774 93.155,279.000 93.281 C 279.233 93.412,279.293 93.655,279.202 94.108 C 279.049 94.874,280.543 96.544,281.382 96.544 C 281.646 96.544,282.028 96.739,282.232 96.976 C 282.436 97.215,282.869 97.408,283.200 97.408 C 283.564 97.408,283.903 97.577,284.067 97.840 C 284.490 98.517,297.408 98.517,297.408 97.840 C 297.408 97.476,297.552 97.408,298.326 97.408 C 299.203 97.407,299.345 97.306,301.512 95.144 C 302.759 93.899,303.901 92.879,304.050 92.877 C 304.233 92.874,304.320 92.485,304.320 91.664 C 304.320 90.638,304.385 90.439,304.752 90.343 C 305.167 90.235,305.184 90.049,305.184 85.537 C 305.184 81.119,305.209 80.822,305.616 80.454 C 305.853 80.239,306.048 79.850,306.048 79.590 C 306.048 79.329,306.242 78.941,306.479 78.726 C 306.717 78.511,306.911 78.104,306.911 77.823 C 306.911 77.481,307.084 77.245,307.433 77.113 C 307.720 77.004,308.018 76.713,308.096 76.467 C 308.429 75.420,308.639 76.459,308.639 79.145 C 308.639 81.841,308.667 82.030,309.071 82.136 C 309.403 82.223,309.503 82.431,309.503 83.032 C 309.503 83.529,309.622 83.860,309.827 83.939 C 310.024 84.015,310.151 84.341,310.151 84.771 C 310.151 85.306,310.261 85.507,310.599 85.596 C 310.846 85.660,311.100 85.915,311.164 86.161 C 311.229 86.407,311.416 86.609,311.580 86.609 C 311.745 86.609,311.879 86.764,311.879 86.953 C 311.879 87.143,312.073 87.348,312.311 87.410 C 312.549 87.473,312.743 87.667,312.743 87.842 C 312.743 88.018,312.937 88.212,313.175 88.274 C 313.413 88.336,313.607 88.531,313.607 88.706 C 313.607 88.882,313.781 89.071,313.993 89.126 C 314.206 89.182,314.473 89.440,314.587 89.700 C 314.725 90.015,315.022 90.195,315.474 90.239 C 315.848 90.275,316.324 90.494,316.534 90.725 C 316.784 91.002,317.196 91.145,317.744 91.145 C 318.287 91.145,318.724 91.295,319.006 91.577 C 319.674 92.245,329.525 92.245,330.130 91.577 C 330.345 91.339,330.743 91.145,331.015 91.145 C 331.287 91.145,331.640 90.958,331.800 90.730 C 331.967 90.491,332.408 90.285,332.838 90.244 C 333.365 90.194,333.648 90.030,333.799 89.687 C 333.916 89.420,334.138 89.201,334.291 89.201 C 334.445 89.201,334.634 89.035,334.712 88.832 C 334.929 88.267,335.681 87.473,336.000 87.473 C 336.157 87.473,336.285 87.318,336.285 87.129 C 336.285 86.940,336.479 86.734,336.717 86.672 C 337.041 86.587,337.149 86.377,337.149 85.833 C 337.149 85.297,337.290 85.015,337.689 84.753 C 338.061 84.510,338.229 84.203,338.229 83.770 C 338.229 83.409,338.367 83.087,338.553 83.015 C 338.808 82.918,338.877 82.476,338.877 80.944 C 338.877 79.238,338.917 79.030,339.201 79.266 C 339.399 79.430,339.525 79.904,339.525 80.487 C 339.525 81.134,339.629 81.479,339.849 81.563 C 340.033 81.634,340.173 81.956,340.173 82.311 C 340.173 82.700,340.335 83.035,340.605 83.203 C 340.860 83.363,341.037 83.707,341.037 84.044 C 341.037 84.415,341.226 84.740,341.577 84.969 C 341.874 85.164,342.117 85.467,342.117 85.642 C 342.117 85.818,342.262 85.961,342.441 85.961 C 342.619 85.961,342.765 86.091,342.765 86.250 C 342.765 86.410,342.999 86.647,343.286 86.777 C 343.572 86.908,343.871 87.215,343.948 87.460 C 344.026 87.705,344.218 87.905,344.376 87.905 C 344.533 87.905,344.718 88.051,344.787 88.229 C 344.855 88.407,345.137 88.553,345.414 88.553 C 345.716 88.553,346.253 88.898,346.760 89.417 C 347.505 90.180,347.721 90.281,348.606 90.281 C 349.335 90.281,349.716 90.399,350.000 90.713 C 350.600 91.376,360.146 91.385,360.319 90.722 C 360.415 90.355,360.653 90.291,362.126 90.236 C 363.090 90.200,363.814 90.080,363.801 89.957 C 363.743 89.367,364.551 89.214,367.765 89.208 C 370.545 89.202,371.058 89.150,371.058 88.877 C 371.058 88.620,371.367 88.553,372.544 88.553 C 373.601 88.553,374.107 88.459,374.298 88.229 C 374.462 88.031,374.936 87.905,375.516 87.905 C 376.355 87.905,376.571 87.795,377.379 86.954 C 377.882 86.431,378.537 85.969,378.834 85.928 C 379.139 85.886,379.466 85.642,379.587 85.367 C 379.704 85.100,379.898 84.878,380.019 84.874 C 380.481 84.860,381.578 83.433,381.841 82.505 C 381.992 81.971,382.203 81.365,382.310 81.158 C 382.584 80.633,382.564 69.824,382.289 69.654 C 382.152 69.569,382.073 66.592,382.073 61.434 C 382.073 56.552,381.993 53.348,381.871 53.348 C 381.760 53.348,381.638 53.032,381.601 52.646 C 381.555 52.164,381.381 51.877,381.048 51.731 C 380.687 51.572,380.562 51.336,380.562 50.815 C 380.562 50.346,380.418 50.022,380.130 49.842 C 379.846 49.665,379.698 49.338,379.698 48.893 C 379.698 48.439,379.573 48.173,379.320 48.088 C 379.112 48.018,378.796 47.867,378.618 47.752 C 378.440 47.638,377.978 47.417,377.592 47.261 C 377.206 47.106,376.890 46.857,376.890 46.708 C 376.890 46.558,376.646 46.436,376.348 46.436 C 376.050 46.436,375.639 46.242,375.436 46.004 C 374.956 45.443,363.067 45.315,363.067 45.871 C 363.067 46.199,362.426 46.429,361.501 46.433 L 360.907 46.436 360.907 43.230 C 360.907 40.298,360.944 39.990,361.339 39.633 C 361.577 39.418,361.771 38.982,361.771 38.665 C 361.771 38.329,361.996 37.876,362.311 37.581 C 362.608 37.302,362.851 36.917,362.851 36.725 C 362.851 36.532,363.240 36.018,363.715 35.581 C 364.190 35.144,364.579 34.597,364.579 34.366 C 364.579 33.716,364.810 33.261,365.142 33.261 C 365.307 33.261,365.443 33.131,365.443 32.972 C 365.443 32.813,365.686 32.572,365.983 32.437 C 366.405 32.244,366.523 32.030,366.523 31.455 C 366.523 30.902,366.629 30.692,366.955 30.607 C 367.304 30.516,367.387 30.312,367.387 29.543 C 367.387 29.020,367.529 28.404,367.704 28.173 C 367.878 27.942,368.024 27.552,368.028 27.305 C 368.031 27.059,368.278 26.629,368.575 26.350 C 369.048 25.905,369.114 25.661,369.114 24.376 C 369.114 23.130,369.180 22.875,369.546 22.678 C 370.211 22.323,370.211 15.396,369.546 14.795 C 369.232 14.510,369.114 14.130,369.114 13.395 C 369.114 12.598,369.001 12.280,368.575 11.879 C 368.278 11.600,368.035 11.212,368.035 11.016 C 368.035 10.821,367.694 10.263,367.279 9.778 C 366.863 9.292,366.523 8.733,366.523 8.536 C 366.523 7.994,365.979 7.560,365.296 7.557 C 364.839 7.555,364.565 7.366,364.199 6.801 C 363.873 6.298,363.545 6.048,363.211 6.048 C 362.935 6.048,362.482 5.805,362.203 5.508 C 361.737 5.012,361.542 4.968,359.816 4.968 C 358.409 4.968,357.869 4.886,357.667 4.644 C 357.313 4.217,355.331 4.222,354.764 4.650 C 354.473 4.871,353.783 4.969,352.497 4.971 C 350.811 4.975,350.603 5.022,350.139 5.511 C 349.860 5.806,349.398 6.048,349.113 6.048 C 348.798 6.048,348.596 6.174,348.596 6.371 C 348.596 6.651,347.844 6.695,343.122 6.695 C 337.922 6.695,337.628 6.717,337.257 7.127 C 336.972 7.442,336.592 7.559,335.853 7.559 C 335.114 7.559,334.734 7.676,334.449 7.991 C 334.234 8.229,333.797 8.423,333.477 8.423 C 333.158 8.423,332.720 8.618,332.505 8.855 C 332.290 9.093,331.941 9.287,331.728 9.287 C 331.516 9.287,331.215 9.463,331.060 9.678 C 330.364 10.642,328.923 11.731,328.673 11.481 C 328.536 11.343,328.103 11.231,327.711 11.231 C 327.245 11.231,326.998 11.127,326.998 10.930 C 326.998 10.522,326.516 10.367,325.246 10.367 C 324.495 10.367,324.140 10.271,324.052 10.043 C 323.948 9.772,323.302 9.719,320.086 9.719 C 316.276 9.719,316.240 9.715,315.735 9.183 C 315.294 8.718,315.036 8.646,313.795 8.643 C 312.790 8.640,312.284 8.543,312.095 8.315 C 311.886 8.064,311.302 7.991,309.482 7.991 C 307.219 7.991,307.125 7.972,306.784 7.451 C 306.236 6.615,301.433 6.615,300.648 7.451 C 300.205 7.923,299.958 7.991,298.693 7.991 C 297.669 7.991,297.166 8.086,296.976 8.315 C 296.828 8.494,296.493 8.639,296.232 8.639 C 295.970 8.639,295.527 8.882,295.248 9.179 C 294.969 9.476,294.522 9.719,294.255 9.719 C 293.973 9.719,293.727 9.878,293.669 10.097 C 293.615 10.305,293.559 10.016,293.546 9.454 C 293.525 8.619,293.422 8.369,292.981 8.079 C 292.488 7.757,292.441 7.590,292.441 6.183 C 292.441 4.892,292.372 4.597,292.024 4.379 C 291.794 4.236,291.576 3.848,291.538 3.517 L 291.469 2.916 279.722 2.860 C 266.760 2.798,267.387 2.729,267.387 4.231 C 267.387 4.947,267.285 5.223,266.955 5.400 C 266.541 5.621,266.523 5.852,266.523 10.809 C 266.523 15.932,266.518 15.984,266.091 15.717 C 265.853 15.568,265.659 15.215,265.659 14.931 C 265.659 14.265,263.363 11.886,262.715 11.882 C 262.463 11.880,262.135 11.733,261.987 11.555 C 261.839 11.377,261.470 11.231,261.168 11.231 C 260.189 11.231,258.747 9.491,258.747 8.309 C 258.747 7.606,258.628 7.237,258.315 6.969 C 258.017 6.714,257.883 6.332,257.883 5.738 C 257.883 4.986,257.747 4.747,256.798 3.843 L 255.713 2.808 244.279 2.808 L 232.845 2.808 231.433 4.145 C 230.657 4.880,230.022 5.645,230.022 5.843 C 230.022 6.042,229.827 6.452,229.590 6.754 C 229.324 7.092,229.158 7.631,229.158 8.154 C 229.158 8.730,229.018 9.130,228.726 9.395 C 228.488 9.610,228.294 9.999,228.294 10.259 C 228.294 10.519,228.099 10.908,227.862 11.123 C 227.566 11.391,227.430 11.788,227.430 12.385 C 227.430 13.477,226.695 14.415,226.215 13.935 C 226.052 13.771,225.918 13.250,225.918 12.776 C 225.918 11.706,225.745 11.231,225.355 11.231 C 225.189 11.231,225.054 11.092,225.054 10.922 C 225.054 10.752,224.854 10.549,224.609 10.471 C 224.364 10.393,224.057 10.095,223.926 9.808 C 223.796 9.522,223.559 9.287,223.399 9.287 C 223.240 9.287,223.110 9.148,223.110 8.978 C 223.110 8.808,222.921 8.608,222.689 8.535 C 222.458 8.461,222.208 8.212,222.135 7.980 C 222.061 7.749,221.862 7.559,221.692 7.559 C 221.522 7.559,221.382 7.414,221.382 7.235 C 221.382 7.023,221.170 6.911,220.768 6.911 C 220.428 6.911,219.979 6.719,219.762 6.479 C 219.547 6.242,219.188 6.048,218.963 6.048 C 218.738 6.048,218.329 5.805,218.053 5.508 L 217.553 4.968 211.838 4.968 L 206.123 4.968 205.616 5.508 C 205.234 5.913,204.888 6.048,204.222 6.048 C 203.603 6.048,203.224 6.178,202.966 6.479 C 202.700 6.790,202.329 6.911,201.645 6.911 C 200.999 6.911,200.654 7.015,200.570 7.235 C 200.500 7.418,200.179 7.559,199.836 7.559 C 199.401 7.559,198.999 7.807,198.432 8.423 C 197.995 8.898,197.463 9.287,197.249 9.287 C 197.035 9.287,195.843 10.308,194.600 11.555 C 192.266 13.897,191.870 14.126,191.411 13.391 C 191.262 13.153,190.996 12.959,190.819 12.959 C 190.642 12.959,190.497 12.831,190.497 12.675 C 190.497 12.128,189.315 11.231,188.595 11.231 C 188.149 11.231,187.905 11.125,187.905 10.930 C 187.905 10.531,187.427 10.367,186.261 10.367 C 185.606 10.367,185.260 10.264,185.175 10.043 C 185.071 9.771,184.403 9.719,181.008 9.719 C 176.975 9.719,176.964 9.718,176.458 9.179 C 176.012 8.705,175.770 8.639,174.470 8.639 C 173.352 8.639,172.958 8.560,172.864 8.315 C 172.765 8.057,172.295 7.991,170.533 7.991 C 168.458 7.991,168.295 7.959,167.819 7.451 C 167.035 6.618,162.122 6.618,161.339 7.451 C 160.896 7.923,160.649 7.991,159.384 7.991 C 158.361 7.991,157.857 8.086,157.667 8.315 C 157.520 8.494,157.184 8.639,156.923 8.639 C 156.661 8.639,156.219 8.882,155.940 9.179 C 155.661 9.476,155.259 9.719,155.046 9.719 C 154.528 9.719,152.700 11.520,152.700 12.031 C 152.700 12.254,152.262 12.866,151.728 13.391 C 151.190 13.919,150.756 14.546,150.756 14.797 C 150.756 15.250,150.388 15.767,150.065 15.767 C 149.970 15.767,149.892 15.053,149.892 14.180 C 149.892 12.868,149.817 12.526,149.460 12.203 C 149.082 11.861,149.028 11.538,149.028 9.611 C 149.028 7.685,148.974 7.362,148.596 7.019 C 148.281 6.734,148.164 6.354,148.164 5.617 C 148.164 4.747,148.088 4.570,147.624 4.359 C 147.222 4.176,147.084 3.947,147.084 3.460 L 147.084 2.808 126.052 2.808 C 107.621 2.808,104.987 2.848,104.752 3.132 C 104.604 3.310,104.236 3.456,103.935 3.456 C 103.177 3.456,101.296 5.390,101.296 6.169 C 101.296 6.554,101.157 6.772,100.864 6.849 C 100.543 6.933,100.432 7.143,100.432 7.668 C 100.432 8.182,100.286 8.470,99.892 8.727 C 99.445 9.020,99.352 9.253,99.352 10.078 C 99.352 10.692,99.232 11.168,99.041 11.315 C 98.847 11.464,98.713 12.006,98.686 12.743 L 98.644 13.931 100.688 15.951 C 102.934 18.171,104.039 19.612,102.037 17.711 C 101.349 17.057,100.675 16.425,100.539 16.307 C 100.402 16.188,99.667 15.541,98.904 14.869 C 90.046 7.068,75.996 2.173,64.687 2.947 M279.995 5.202 C 282.824 5.988,283.643 8.990,282.392 13.988 C 281.428 17.838,280.753 18.596,277.862 19.082 C 274.514 19.645,274.687 19.709,274.886 17.981 C 275.119 15.955,275.058 8.795,274.794 7.280 C 274.544 5.841,274.555 5.828,276.501 5.304 C 277.904 4.927,278.897 4.898,279.995 5.202 M138.398 8.747 C 140.815 31.366,140.924 32.051,142.318 33.413 C 144.515 35.560,137.687 39.079,133.808 37.799 C 130.849 36.823,130.282 34.878,129.466 22.902 C 129.298 20.446,129.079 19.328,128.871 19.870 C 128.730 20.239,127.644 24.433,125.461 33.036 C 124.634 36.297,123.920 39.003,123.874 39.049 C 123.728 39.195,118.043 40.120,117.818 40.034 C 117.699 39.989,117.145 38.616,116.587 36.984 C 114.093 29.692,111.515 22.645,111.328 22.609 C 111.108 22.567,110.777 26.944,110.369 35.313 C 110.055 41.761,110.212 41.349,107.954 41.670 C 106.965 41.811,105.777 42.026,105.315 42.146 C 104.174 42.444,104.144 42.344,104.469 39.367 C 104.783 36.499,105.581 28.060,106.376 19.222 C 107.083 11.355,107.120 11.045,107.386 10.881 C 107.512 10.803,109.181 10.510,111.097 10.230 C 113.012 9.949,115.308 9.584,116.199 9.418 C 118.031 9.076,118.211 9.145,118.589 10.330 C 119.050 11.778,123.123 22.979,123.226 23.082 C 123.461 23.317,124.251 20.664,126.804 11.051 C 127.162 9.704,127.540 8.377,127.645 8.101 C 127.865 7.523,127.741 7.554,132.829 6.792 C 134.908 6.480,136.654 6.181,136.709 6.126 C 136.764 6.072,137.105 6.056,137.465 6.091 L 138.121 6.156 138.398 8.747 M244.168 8.453 C 247.118 8.603,249.240 8.802,249.393 8.942 C 249.672 9.200,247.293 15.551,246.152 17.591 C 245.420 18.901,245.427 18.907,247.289 18.454 C 250.264 17.731,254.453 18.324,256.653 19.780 C 261.103 22.725,258.573 30.978,252.944 31.878 C 251.893 32.046,251.910 31.907,252.580 34.934 C 253.261 38.017,253.608 38.833,254.592 39.678 L 255.399 40.371 254.449 41.339 C 251.731 44.108,246.282 44.104,243.847 41.330 C 242.414 39.698,241.451 36.289,241.790 34.047 C 242.261 30.931,242.227 30.997,243.722 30.261 C 247.297 28.501,249.924 21.166,246.979 21.166 C 245.450 21.166,244.094 23.714,240.941 32.505 C 239.791 35.713,238.645 38.910,238.394 39.610 L 237.937 40.882 235.545 40.739 C 234.230 40.660,231.711 40.534,229.948 40.458 C 226.153 40.295,226.301 40.457,227.398 37.676 C 227.863 36.495,229.029 33.391,229.988 30.778 C 232.843 22.996,236.487 12.980,237.177 11.015 C 238.151 8.244,238.171 8.208,238.710 8.204 C 238.980 8.202,241.436 8.314,244.168 8.453 M357.617 13.966 C 362.156 15.579,360.195 22.873,352.134 34.353 C 348.559 39.445,348.215 42.498,350.999 44.438 C 352.758 45.665,352.701 45.477,351.620 46.461 C 348.538 49.268,343.160 49.960,341.206 47.800 C 339.279 45.671,339.826 42.515,342.636 39.552 L 343.737 38.391 342.657 38.538 C 342.063 38.619,341.082 38.740,340.478 38.808 L 339.380 38.930 338.897 36.474 C 336.832 25.967,335.432 21.188,334.038 19.887 C 333.297 19.195,333.328 18.966,334.277 18.133 C 336.104 16.529,339.393 15.592,341.815 15.986 C 345.180 16.534,346.194 18.751,347.645 28.726 C 348.323 33.389,348.354 33.455,349.089 31.813 C 351.010 27.521,351.740 21.023,350.649 17.929 C 349.549 14.811,353.567 12.526,357.617 13.966 M214.828 14.432 C 219.169 16.649,217.295 22.585,212.169 22.854 L 210.367 22.948 210.355 21.031 C 210.329 17.013,207.949 15.381,206.109 18.120 C 204.798 20.072,205.794 21.763,209.179 23.335 C 213.669 25.419,214.367 25.802,215.220 26.656 C 216.781 28.216,217.181 31.174,216.188 33.801 C 213.411 41.146,195.878 43.778,195.900 36.847 C 195.908 34.206,197.920 32.629,201.372 32.557 C 203.534 32.512,203.672 32.614,203.672 34.255 C 203.672 37.357,205.811 38.893,207.682 37.135 C 209.517 35.411,208.712 34.177,204.448 32.181 C 197.776 29.058,195.952 25.734,198.233 20.859 C 200.531 15.948,210.351 12.145,214.828 14.432 M166.653 16.816 C 171.049 17.032,170.949 16.993,170.390 18.299 C 168.014 23.842,163.933 35.630,163.867 37.141 C 163.789 38.939,164.814 39.416,166.179 38.217 C 167.221 37.302,167.551 36.493,170.734 27.029 L 173.542 18.683 175.270 18.763 C 182.870 19.118,184.774 19.319,184.742 19.762 C 184.724 20.000,183.838 22.576,182.773 25.486 C 177.998 38.525,178.011 38.462,179.813 39.900 C 180.685 40.596,180.700 40.667,180.135 41.462 C 178.186 44.198,170.663 43.905,168.753 41.019 C 168.088 40.014,168.189 40.027,166.622 40.745 C 162.778 42.504,155.033 40.948,153.768 38.162 C 152.878 36.202,153.069 35.224,156.289 25.270 C 157.538 21.409,158.659 17.934,158.779 17.547 C 159.151 16.353,159.360 16.261,161.259 16.458 C 162.194 16.555,164.621 16.716,166.653 16.816 M306.479 16.854 C 310.487 16.917,310.371 16.444,307.934 22.786 C 302.774 36.210,302.155 38.877,304.200 38.877 C 305.799 38.877,306.581 37.275,309.952 27.106 C 311.409 22.711,312.706 18.996,312.835 18.851 C 313.012 18.652,313.665 18.635,315.552 18.784 C 316.917 18.892,319.371 19.047,321.004 19.130 C 324.562 19.311,324.407 18.998,322.911 22.981 C 322.327 24.537,321.556 26.636,321.198 27.646 C 320.839 28.656,319.993 31.037,319.316 32.937 C 317.572 37.836,317.574 39.333,319.325 40.131 C 320.390 40.616,319.607 41.758,317.547 42.723 C 314.043 44.365,309.320 43.191,307.421 40.206 C 307.395 40.165,306.711 40.397,305.901 40.721 C 301.664 42.419,294.408 40.990,292.951 38.171 C 292.017 36.367,292.330 34.982,296.564 22.150 C 297.385 19.663,298.056 17.500,298.056 17.345 C 298.056 16.413,298.708 16.263,301.527 16.547 C 303.003 16.696,305.232 16.834,306.479 16.854 M67.343 16.890 C 67.824 17.370,67.525 23.934,67.014 24.131 C 66.847 24.195,66.613 24.151,66.495 24.033 C 66.193 23.731,65.489 17.358,65.714 16.956 C 65.932 16.567,66.978 16.525,67.343 16.890 M72.119 17.458 C 72.511 18.190,70.395 24.406,69.753 24.406 C 69.535 24.406,69.303 24.320,69.237 24.214 C 69.071 23.944,70.356 17.712,70.652 17.355 C 71.002 16.934,71.871 16.995,72.119 17.458 M62.575 17.549 C 63.312 18.503,64.308 24.622,63.727 24.622 C 63.260 24.622,60.909 19.210,60.908 18.132 C 60.906 17.379,62.117 16.956,62.575 17.549 M76.334 18.914 C 76.815 19.395,76.759 19.754,76.077 20.565 C 75.748 20.955,75.020 21.955,74.459 22.786 C 72.763 25.297,71.922 25.984,71.922 24.859 C 71.922 24.445,74.070 20.153,74.769 19.168 C 75.243 18.502,75.828 18.407,76.334 18.914 M58.183 19.121 C 58.672 19.610,61.555 24.769,61.555 25.155 C 61.555 25.748,60.814 25.497,60.133 24.672 C 58.329 22.487,56.587 20.092,56.587 19.795 C 56.587 19.079,57.680 18.618,58.183 19.121 M29.100 20.577 C 28.468 21.322,27.634 22.391,27.248 22.953 C 26.517 24.015,26.017 24.407,26.676 23.401 C 27.654 21.908,29.883 19.222,30.144 19.222 C 30.201 19.222,29.732 19.832,29.100 20.577 M80.432 21.849 C 80.885 22.496,80.773 22.631,77.851 24.946 C 75.303 26.965,74.883 27.204,74.623 26.784 C 74.424 26.461,74.655 26.153,76.963 23.669 C 79.222 21.239,79.794 20.938,80.432 21.849 M56.543 24.224 C 58.857 26.502,59.403 27.366,58.483 27.294 C 57.955 27.253,52.700 23.310,52.700 22.955 C 52.700 21.139,53.767 21.491,56.543 24.224 M271.745 26.350 C 272.051 26.350,272.422 26.496,272.570 26.674 C 272.718 26.852,273.068 26.998,273.348 26.998 C 273.652 26.998,273.998 27.215,274.210 27.538 L 274.564 28.078 278.173 28.078 C 281.744 28.078,281.788 28.072,282.289 27.538 C 282.675 27.127,283.015 26.998,283.708 26.998 C 284.319 26.998,284.660 26.891,284.743 26.674 C 284.812 26.496,285.114 26.350,285.414 26.350 C 286.214 26.350,286.219 27.976,285.421 28.726 C 284.914 29.203,284.881 29.365,284.881 31.440 C 284.881 33.203,284.816 33.672,284.557 33.771 C 284.310 33.866,284.233 34.273,284.233 35.496 C 284.233 36.655,284.323 37.170,284.557 37.365 C 284.786 37.555,284.881 38.058,284.881 39.082 C 284.881 40.347,284.949 40.593,285.421 41.037 C 285.718 41.316,285.961 41.721,285.961 41.938 C 285.961 42.155,286.156 42.527,286.393 42.765 C 286.633 43.005,286.825 43.485,286.825 43.844 C 286.825 44.276,286.933 44.492,287.149 44.492 C 287.327 44.492,287.473 44.638,287.473 44.816 C 287.473 44.995,287.619 45.140,287.797 45.140 C 287.975 45.140,288.121 45.245,288.121 45.372 C 288.121 45.671,288.670 46.220,288.969 46.220 C 289.097 46.220,289.201 46.375,289.201 46.564 C 289.201 46.754,289.395 46.960,289.633 47.022 C 289.870 47.084,290.065 47.269,290.065 47.433 C 290.065 47.678,289.299 47.732,285.880 47.732 C 282.423 47.732,281.648 47.789,281.425 48.056 C 281.256 48.260,280.780 48.380,280.141 48.380 C 279.337 48.380,279.019 48.493,278.618 48.920 C 278.339 49.217,277.908 49.460,277.660 49.460 C 277.412 49.460,277.088 49.654,276.940 49.892 C 276.784 50.141,276.436 50.324,276.117 50.324 C 275.549 50.324,274.946 50.761,274.946 51.172 C 274.946 51.300,274.829 51.404,274.686 51.404 C 274.543 51.404,274.108 51.712,273.719 52.090 C 273.051 52.737,272.989 52.755,272.612 52.414 C 272.392 52.215,271.953 52.052,271.635 52.052 C 271.266 52.052,271.058 51.935,271.058 51.728 C 271.058 51.476,270.770 51.404,269.762 51.404 C 268.754 51.404,268.467 51.332,268.467 51.080 C 268.467 50.811,268.057 50.756,266.080 50.756 C 263.813 50.756,263.669 50.729,263.194 50.216 C 262.743 49.729,262.528 49.676,261.018 49.676 C 259.553 49.676,259.376 49.635,259.611 49.352 C 259.759 49.174,260.082 49.028,260.329 49.028 C 260.928 49.028,262.203 47.768,262.203 47.176 C 262.203 46.917,262.349 46.584,262.527 46.436 C 262.705 46.288,262.851 45.953,262.851 45.692 C 262.851 45.430,263.094 44.987,263.391 44.708 C 263.889 44.241,263.931 44.050,263.931 42.275 C 263.931 40.530,263.972 40.338,264.363 40.235 C 264.756 40.133,264.795 39.941,264.795 38.103 C 264.795 36.305,264.842 36.059,265.227 35.853 C 265.467 35.724,265.659 35.401,265.659 35.123 C 265.659 34.849,265.853 34.448,266.091 34.233 C 266.328 34.018,266.523 33.712,266.523 33.552 C 266.523 33.392,266.668 33.261,266.847 33.261 C 267.090 33.261,267.171 33.001,267.171 32.215 C 267.171 31.443,267.284 31.066,267.603 30.778 C 267.903 30.506,268.035 30.112,268.035 29.486 C 268.035 28.804,268.166 28.462,268.575 28.078 C 269.063 27.619,269.114 27.406,269.114 25.856 L 269.114 24.141 270.151 25.245 C 270.879 26.020,271.355 26.350,271.745 26.350 M70.056 25.338 C 70.594 25.690,70.642 25.829,70.583 26.848 L 70.518 27.970 66.767 28.029 C 64.329 28.067,62.918 28.007,62.737 27.856 C 62.543 27.696,62.415 27.694,62.317 27.851 C 62.237 27.981,61.385 28.078,60.328 28.078 C 58.628 28.078,58.502 28.049,58.775 27.718 C 59.284 27.100,61.338 25.889,61.946 25.849 C 62.266 25.827,62.624 25.687,62.743 25.537 C 63.344 24.779,68.968 24.625,70.056 25.338 M83.477 25.348 C 83.971 26.100,83.702 26.470,82.219 27.078 C 81.486 27.379,80.254 27.884,79.482 28.200 C 75.674 29.761,75.729 28.838,79.582 26.521 C 82.627 24.690,82.977 24.584,83.477 25.348 M25.375 25.629 C 25.167 25.946,24.806 26.529,24.573 26.925 C 24.097 27.731,23.815 27.917,24.217 27.160 C 24.628 26.388,25.533 25.054,25.647 25.054 C 25.705 25.054,25.582 25.313,25.375 25.629 M53.996 27.080 C 55.599 27.955,56.911 28.804,56.911 28.968 C 56.911 29.640,55.969 29.416,50.829 27.524 C 49.775 27.135,49.539 26.700,50.000 25.995 C 50.489 25.249,50.790 25.331,53.996 27.080 M72.415 26.057 C 75.404 27.570,75.550 28.113,72.948 28.032 L 70.950 27.970 70.883 27.027 C 70.761 25.329,70.858 25.268,72.415 26.057 M61.295 29.968 L 61.358 31.533 58.858 31.533 C 55.636 31.533,55.415 31.168,57.376 29.089 C 58.140 28.280,58.151 28.276,59.687 28.339 L 61.231 28.402 61.295 29.968 M65.076 29.050 C 65.052 29.406,64.973 30.115,64.899 30.625 L 64.766 31.552 63.214 31.489 L 61.663 31.425 61.597 30.154 C 61.500 28.267,61.502 28.266,63.442 28.339 L 65.119 28.402 65.076 29.050 M72.958 29.968 L 73.021 31.533 71.190 31.533 C 69.148 31.533,69.267 31.632,69.007 29.721 C 68.823 28.372,68.973 28.276,71.166 28.346 L 72.894 28.402 72.958 29.968 M76.165 28.996 C 76.994 29.882,77.754 30.987,77.754 31.304 C 77.754 31.474,77.079 31.530,75.540 31.487 L 73.326 31.425 73.261 30.041 C 73.186 28.460,73.311 28.302,74.634 28.297 C 75.345 28.294,75.632 28.425,76.165 28.996 M23.234 29.416 C 22.828 29.996,22.794 29.829,23.156 29.035 C 23.300 28.719,23.453 28.566,23.496 28.696 C 23.539 28.825,23.421 29.149,23.234 29.416 M85.601 29.388 C 86.424 30.563,85.989 30.776,81.836 31.226 C 76.852 31.766,76.706 30.953,81.560 29.694 C 84.881 28.834,85.196 28.810,85.601 29.388 M52.006 30.311 C 55.133 31.041,55.798 31.329,55.362 31.766 C 55.072 32.056,48.408 31.610,48.003 31.273 C 47.631 30.965,47.663 30.337,48.072 29.929 C 48.515 29.486,48.429 29.477,52.006 30.311 M22.440 30.940 C 21.878 32.054,21.705 32.254,21.927 31.533 C 22.097 30.978,22.660 30.022,22.815 30.022 C 22.864 30.022,22.695 30.435,22.440 30.940 M60.151 32.721 C 60.151 33.189,60.061 33.347,59.827 33.290 C 59.649 33.246,58.702 33.052,57.722 32.858 C 55.142 32.347,55.301 31.931,58.045 32.012 L 60.151 32.073 60.151 32.721 M64.759 33.466 C 64.712 34.291,64.605 35.035,64.520 35.120 C 64.202 35.438,60.588 33.590,60.512 33.070 C 60.364 32.053,60.543 31.965,62.761 31.965 L 64.844 31.965 64.759 33.466 M75.378 33.058 C 75.378 34.003,75.269 34.281,74.576 35.110 L 73.775 36.069 71.903 36.069 C 69.645 36.069,69.641 36.065,69.440 33.747 L 69.285 31.965 72.332 31.965 L 75.378 31.965 75.378 33.058 M78.281 32.161 C 78.417 32.380,76.224 33.698,75.972 33.548 C 75.771 33.429,75.757 32.306,75.954 32.109 C 76.170 31.893,78.142 31.936,78.281 32.161 M21.315 33.455 C 21.055 34.037,20.812 34.433,20.776 34.335 C 20.706 34.150,21.539 32.397,21.697 32.397 C 21.746 32.397,21.574 32.873,21.315 33.455 M84.198 33.999 C 85.954 34.907,85.217 41.222,83.083 43.557 C 81.269 45.542,80.306 45.551,78.235 43.604 C 77.273 42.699,76.578 42.261,75.494 41.876 L 74.041 41.361 74.129 40.281 C 74.505 35.657,80.351 32.010,84.198 33.999 M57.775 34.649 C 61.414 35.432,64.602 37.193,67.341 39.932 C 69.068 41.659,69.072 41.694,67.668 42.619 C 66.164 43.609,66.372 43.643,64.858 42.161 C 60.959 38.346,55.587 36.769,50.330 37.896 C 48.671 38.251,48.595 38.221,48.598 37.190 C 48.606 34.775,48.661 34.723,51.728 34.259 C 52.835 34.092,56.191 34.308,57.775 34.649 M330.022 36.048 C 330.022 37.240,330.102 37.587,330.454 37.905 C 330.756 38.178,330.886 38.570,330.886 39.208 C 330.886 39.755,331.015 40.227,331.210 40.389 C 331.598 40.711,331.680 45.327,331.310 46.019 C 331.117 46.380,330.845 46.436,329.301 46.436 C 328.201 46.436,327.417 46.536,327.257 46.695 C 327.055 46.897,326.998 46.878,326.998 46.611 C 326.998 46.421,327.144 46.211,327.322 46.142 C 327.500 46.074,327.646 45.789,327.646 45.509 C 327.646 45.229,327.889 44.771,328.186 44.492 C 328.694 44.015,328.726 43.855,328.726 41.755 C 328.726 39.813,328.781 39.469,329.158 39.093 C 329.532 38.718,329.590 38.373,329.590 36.488 C 329.590 35.095,329.667 34.364,329.806 34.449 C 329.924 34.523,330.022 35.242,330.022 36.048 M52.913 35.367 C 52.911 35.575,52.851 35.964,52.780 36.231 C 52.665 36.659,52.730 36.717,53.323 36.717 C 54.018 36.717,54.209 36.229,53.865 35.331 C 53.684 34.861,52.917 34.890,52.913 35.367 M49.892 36.201 C 49.892 37.178,49.902 37.193,50.486 37.047 C 51.261 36.852,51.243 36.902,50.864 35.994 C 50.385 34.847,49.892 34.952,49.892 36.201 M55.767 35.922 C 55.411 36.906,55.421 36.933,56.156 36.933 C 56.767 36.933,56.803 36.885,56.803 36.069 C 56.803 34.940,56.155 34.849,55.767 35.922 M58.662 36.521 C 58.250 37.219,58.334 37.441,59.100 37.671 C 59.495 37.790,59.581 37.701,59.704 37.044 C 59.954 35.716,59.324 35.400,58.662 36.521 M73.479 36.402 C 73.543 36.466,73.412 36.876,73.189 37.314 C 72.966 37.752,72.668 38.669,72.527 39.351 L 72.271 40.591 71.346 40.729 C 70.485 40.859,70.382 40.818,69.837 40.142 C 69.515 39.743,68.686 38.879,67.995 38.221 C 66.037 36.359,66.116 36.285,70.050 36.285 C 71.872 36.285,73.415 36.337,73.479 36.402 M61.317 37.611 C 60.850 38.267,60.848 38.299,61.236 38.583 C 61.877 39.052,62.174 38.930,62.323 38.135 C 62.571 36.813,62.071 36.553,61.317 37.611 M19.933 37.581 C 19.871 37.819,19.743 38.013,19.649 38.013 C 19.556 38.013,19.530 37.819,19.592 37.581 C 19.654 37.343,19.782 37.149,19.875 37.149 C 19.969 37.149,19.995 37.343,19.933 37.581 M78.888 37.905 C 78.891 38.380,78.935 38.549,78.986 38.280 C 79.038 38.012,79.036 37.623,78.982 37.416 C 78.928 37.210,78.886 37.430,78.888 37.905 M80.483 38.553 C 80.393 38.788,80.509 38.877,80.908 38.877 C 81.395 38.877,81.420 38.841,81.132 38.553 C 80.954 38.375,80.763 38.229,80.708 38.229 C 80.653 38.229,80.552 38.375,80.483 38.553 M53.307 39.363 C 53.243 40.031,53.188 40.071,52.160 40.200 C 51.566 40.275,50.653 40.452,50.131 40.595 C 49.086 40.880,48.758 40.687,48.865 39.849 C 48.926 39.368,51.015 38.703,52.551 38.676 C 53.353 38.661,53.373 38.680,53.307 39.363 M57.091 39.069 C 58.022 39.292,58.877 39.568,58.991 39.682 C 59.298 39.989,58.751 41.084,58.365 40.936 C 57.322 40.536,57.127 40.669,58.130 41.097 C 60.726 42.206,61.211 42.681,60.583 43.503 C 60.274 43.907,60.239 43.902,59.146 43.307 C 58.529 42.971,57.628 42.578,57.144 42.433 C 56.235 42.160,56.010 41.409,56.617 40.677 C 56.824 40.427,56.465 40.336,54.428 40.122 C 53.991 40.076,53.875 39.931,53.820 39.363 C 53.736 38.492,54.422 38.430,57.091 39.069 M63.612 39.128 L 63.018 39.594 63.529 39.987 C 64.211 40.511,64.298 40.494,64.681 39.752 C 65.295 38.564,64.740 38.240,63.612 39.128 M79.075 39.471 C 79.057 39.962,79.147 40.173,79.374 40.173 C 79.552 40.173,79.698 40.027,79.698 39.849 C 79.698 39.671,79.608 39.525,79.497 39.525 C 79.387 39.525,79.253 39.355,79.199 39.147 C 79.144 38.939,79.089 39.085,79.075 39.471 M61.244 40.724 C 61.950 41.147,62.797 41.759,63.127 42.085 L 63.727 42.677 63.231 43.144 L 62.734 43.611 61.846 42.908 C 61.358 42.522,60.558 42.025,60.069 41.804 C 59.153 41.391,59.016 41.097,59.403 40.375 C 59.699 39.822,59.752 39.832,61.244 40.724 M55.899 41.187 L 55.832 41.986 53.564 41.997 C 51.351 42.008,51.294 41.996,51.225 41.507 C 51.077 40.461,51.235 40.389,53.678 40.389 L 55.966 40.389 55.899 41.187 M65.853 41.092 L 65.292 41.577 65.776 42.072 L 66.260 42.566 66.731 41.806 C 67.459 40.627,66.909 40.180,65.853 41.092 M50.756 41.361 C 50.756 41.658,50.780 41.965,50.810 42.045 C 50.929 42.363,49.631 42.609,49.438 42.305 C 49.161 41.867,49.205 41.089,49.514 40.964 C 50.258 40.664,50.756 40.823,50.756 41.361 M77.970 41.145 C 77.970 41.323,78.127 41.469,78.320 41.469 C 78.607 41.469,78.622 41.410,78.402 41.145 C 78.254 40.967,78.096 40.821,78.051 40.821 C 78.006 40.821,77.970 40.967,77.970 41.145 M75.198 42.972 C 75.908 43.238,76.921 43.905,77.801 44.686 C 79.774 46.437,81.068 46.641,82.511 45.427 C 83.275 44.784,83.299 44.867,82.697 46.067 C 81.639 48.173,81.443 48.311,79.479 48.329 C 77.501 48.347,76.667 48.009,75.923 46.885 C 75.688 46.531,75.275 46.123,75.005 45.978 C 74.735 45.834,74.514 45.630,74.514 45.525 C 74.514 45.303,73.143 44.698,72.356 44.573 C 69.249 44.080,67.807 44.435,68.488 45.527 C 68.754 45.953,68.709 46.067,67.975 46.818 C 67.178 47.635,67.055 48.033,67.307 48.974 C 67.393 49.298,67.601 49.460,67.929 49.460 C 68.398 49.460,68.422 49.540,68.436 51.134 C 68.444 52.055,68.505 53.197,68.572 53.672 C 68.824 55.469,68.846 55.394,68.063 55.469 C 65.683 55.697,63.913 50.028,65.370 46.842 C 67.039 43.190,71.298 41.513,75.198 42.972 M55.292 43.208 C 60.232 43.996,63.931 48.334,63.931 53.341 L 63.931 55.076 63.301 55.076 C 62.084 55.076,61.770 54.726,61.128 52.656 C 60.878 51.849,60.762 51.772,59.395 51.504 C 58.382 51.305,57.927 50.862,57.651 49.804 C 57.375 48.747,56.957 48.380,56.030 48.380 C 55.077 48.380,54.398 47.758,54.005 46.524 C 53.646 45.399,53.006 45.059,51.711 45.307 C 51.196 45.405,51.242 45.450,52.190 45.764 C 53.162 46.086,53.266 46.191,53.593 47.177 C 53.999 48.401,54.451 48.812,55.393 48.812 C 56.340 48.812,56.900 49.288,57.219 50.363 C 57.567 51.535,57.812 51.836,58.418 51.836 C 59.789 51.836,60.907 52.801,60.907 53.985 C 60.907 54.737,60.304 54.471,59.895 53.540 C 59.692 53.076,59.457 52.951,58.561 52.832 C 57.327 52.668,56.691 52.068,56.463 50.850 C 56.291 49.937,56.068 49.765,54.860 49.611 C 53.801 49.476,52.916 48.707,52.916 47.922 C 52.916 47.166,52.502 46.675,51.744 46.533 C 51.102 46.413,50.941 46.241,50.473 45.174 C 49.826 43.700,49.940 43.506,51.622 43.227 C 53.270 42.955,53.690 42.952,55.292 43.208 M65.443 44.511 C 65.443 44.593,65.257 44.890,65.029 45.170 L 64.616 45.680 64.061 45.160 C 63.299 44.446,63.165 43.901,63.626 43.392 C 63.991 42.989,65.443 43.883,65.443 44.511 M63.170 44.524 C 64.316 45.762,64.389 45.905,64.256 46.630 C 64.077 47.603,63.759 47.966,63.495 47.499 C 63.125 46.844,61.285 44.708,61.090 44.708 C 60.692 44.708,60.650 44.032,61.022 43.620 C 61.600 42.982,61.833 43.080,63.170 44.524 M73.650 43.722 C 73.650 43.892,73.839 44.091,74.069 44.164 C 74.299 44.237,74.785 44.636,75.149 45.050 C 75.882 45.886,75.968 45.856,75.490 44.933 C 74.952 43.891,73.650 43.035,73.650 43.722 M115.871 45.718 L 115.973 47.408 115.670 45.788 C 115.289 43.749,115.258 43.150,115.559 43.666 C 115.675 43.864,115.815 44.788,115.871 45.718 M18.162 44.938 C 18.051 45.503,17.965 45.675,17.953 45.356 C 17.931 44.772,18.150 43.780,18.274 43.904 C 18.316 43.945,18.265 44.411,18.162 44.938 M70.842 45.116 C 70.842 45.221,71.088 45.468,71.389 45.665 C 71.929 46.019,71.934 46.017,71.797 45.474 C 71.712 45.133,71.750 44.924,71.899 44.924 C 72.202 44.924,73.002 45.714,73.002 46.013 C 73.002 46.137,73.205 46.453,73.452 46.715 C 74.406 47.726,74.608 48.398,74.615 50.594 C 74.622 52.615,74.641 52.699,75.095 52.700 C 76.075 52.700,75.778 53.142,74.361 53.792 C 71.115 55.282,69.647 55.502,70.128 54.428 C 70.208 54.249,70.289 53.803,70.309 53.435 C 70.328 53.066,70.428 52.631,70.529 52.466 C 70.631 52.302,70.734 52.020,70.759 51.840 C 70.783 51.659,70.866 51.269,70.943 50.972 C 71.324 49.495,71.246 49.251,70.315 49.000 C 69.833 48.869,69.317 48.728,69.168 48.686 C 68.508 48.499,68.892 47.510,69.849 46.931 C 70.761 46.381,70.787 46.337,70.479 45.866 C 70.162 45.383,70.240 44.924,70.639 44.924 C 70.751 44.924,70.842 45.010,70.842 45.116 M220.425 45.294 C 221.839 46.708,221.648 49.188,220.033 50.394 C 218.650 51.425,217.565 51.619,209.443 52.284 C 207.776 52.421,206.194 52.682,205.447 52.944 C 203.341 53.684,203.354 53.685,202.684 52.807 C 201.724 51.548,201.673 49.784,202.567 48.766 C 203.797 47.364,205.232 47.001,211.771 46.435 C 216.165 46.055,218.219 45.742,219.006 45.335 C 219.951 44.846,219.976 44.845,220.425 45.294 M54.815 46.166 C 55.157 47.088,55.283 47.211,56.053 47.377 C 57.591 47.708,57.820 47.875,58.221 48.959 C 58.722 50.314,58.910 50.540,59.537 50.540 C 59.823 50.540,60.394 50.681,60.806 50.853 C 61.448 51.121,61.555 51.122,61.555 50.861 C 61.555 50.479,60.886 50.108,60.199 50.108 C 59.525 50.108,59.045 49.561,58.618 48.307 C 58.347 47.513,58.152 47.273,57.701 47.181 C 55.815 46.797,55.534 46.649,55.260 45.891 C 55.111 45.478,54.864 45.140,54.712 45.140 C 54.501 45.140,54.526 45.386,54.815 46.166 M56.371 45.851 C 56.550 46.030,57.036 46.238,57.451 46.314 C 58.192 46.448,58.196 46.444,57.667 46.146 C 56.755 45.632,55.977 45.455,56.371 45.851 M17.863 47.354 C 17.812 47.621,17.769 47.403,17.769 46.868 C 17.769 46.334,17.812 46.115,17.863 46.382 C 17.914 46.650,17.914 47.087,17.863 47.354 M157.667 46.311 C 157.667 46.360,157.337 47.454,156.934 48.740 C 156.149 51.245,151.340 67.427,149.379 74.166 C 147.969 79.008,148.343 78.541,145.562 78.941 C 144.321 79.119,141.944 79.504,140.281 79.795 C 136.566 80.446,137.047 80.987,135.630 74.568 C 134.503 69.458,134.279 68.673,134.025 68.927 C 133.919 69.032,133.170 71.485,130.696 79.818 L 130.244 81.342 127.811 81.732 C 125.377 82.122,119.715 83.067,118.435 83.297 C 117.673 83.433,117.667 83.423,117.302 81.425 C 117.182 80.772,116.883 79.314,116.637 78.186 C 116.157 75.985,115.395 72.507,115.122 71.274 C 115.030 70.859,114.601 68.915,114.168 66.955 C 112.693 60.275,112.027 58.509,110.386 56.922 C 109.242 55.815,109.272 55.495,110.644 54.123 C 112.926 51.841,118.068 51.030,120.965 52.495 C 123.810 53.933,124.946 57.104,125.915 66.307 C 126.783 74.556,126.846 74.981,127.093 74.275 C 127.151 74.109,128.553 68.598,130.207 62.028 C 131.862 55.457,133.256 50.041,133.305 49.992 C 133.470 49.827,139.535 48.966,139.659 49.090 C 139.727 49.158,140.107 50.799,140.504 52.738 C 140.901 54.677,141.568 57.867,141.987 59.827 C 142.405 61.787,143.037 64.752,143.391 66.415 C 144.480 71.532,144.523 71.706,144.699 71.706 C 144.794 71.706,145.182 70.564,145.562 69.168 C 147.763 61.096,151.407 47.976,151.577 47.515 C 151.809 46.886,157.667 45.727,157.667 46.311 M59.523 48.056 C 59.653 48.684,60.316 49.460,60.723 49.460 C 60.976 49.460,60.666 48.903,59.943 48.056 L 59.390 47.408 59.523 48.056 M182.775 48.595 C 186.065 49.611,187.464 52.336,185.963 54.804 C 184.295 57.547,176.855 56.844,175.278 53.795 C 173.416 50.194,177.895 47.088,182.775 48.595 M65.593 48.681 C 65.505 48.906,65.483 49.141,65.546 49.203 C 65.743 49.400,65.916 49.077,65.833 48.667 C 65.758 48.291,65.746 48.292,65.593 48.681 M55.301 50.329 C 55.805 50.599,56.224 51.334,56.041 51.630 C 55.897 51.863,54.212 50.643,54.212 50.306 C 54.212 50.042,54.788 50.055,55.301 50.329 M240.389 50.421 C 240.389 50.645,240.705 50.752,241.506 50.799 C 242.557 50.860,243.340 51.404,242.377 51.404 C 242.144 51.404,241.833 51.550,241.685 51.728 C 241.537 51.906,241.156 52.052,240.839 52.052 C 240.441 52.052,239.967 52.353,239.309 53.024 C 238.784 53.558,238.160 53.996,237.921 53.996 C 237.358 53.996,235.205 56.120,235.205 56.674 C 235.205 57.101,234.422 58.099,234.088 58.099 C 233.990 58.099,233.909 57.856,233.909 57.559 C 233.909 57.223,233.787 57.019,233.585 57.019 C 233.337 57.019,233.261 56.746,233.261 55.855 C 233.261 55.019,233.170 54.655,232.937 54.566 C 232.754 54.495,232.613 54.173,232.613 53.824 C 232.613 53.445,232.405 53.011,232.073 52.700 C 231.642 52.295,231.533 51.983,231.533 51.150 L 231.533 50.108 235.961 50.108 C 239.682 50.108,240.389 50.158,240.389 50.421 M66.955 52.809 C 66.955 53.936,67.249 54.644,67.718 54.644 C 68.108 54.644,68.107 54.473,67.711 53.780 C 67.541 53.483,67.398 52.978,67.394 52.659 C 67.390 52.339,67.289 52.017,67.171 51.944 C 67.039 51.862,66.955 52.198,66.955 52.809 M315.335 52.223 C 315.335 52.317,314.911 52.810,314.393 53.318 L 313.451 54.243 312.989 53.357 C 312.334 52.100,312.369 52.052,313.931 52.052 C 314.703 52.052,315.335 52.129,315.335 52.223 M372.055 55.562 C 371.612 62.724,371.419 72.164,371.701 72.894 C 372.072 73.856,372.762 74.491,373.714 74.747 C 374.516 74.963,374.555 75.012,374.428 75.645 C 373.700 79.289,366.079 81.571,363.170 79.016 L 362.481 78.411 361.578 79.244 C 356.600 83.840,349.332 82.999,347.296 77.592 C 342.964 66.088,349.611 55.689,361.339 55.621 C 364.367 55.603,368.281 54.836,370.734 53.779 C 372.057 53.209,372.189 53.388,372.055 55.562 M220.518 54.903 C 223.446 55.778,224.014 57.880,223.425 65.647 C 222.915 72.378,223.195 73.770,225.208 74.514 C 226.422 74.962,226.441 75.000,225.950 75.962 C 223.979 79.826,216.618 81.293,213.887 78.366 C 212.493 76.871,212.190 74.210,212.736 68.251 C 213.297 62.133,212.958 59.179,211.695 59.179 C 209.856 59.179,209.542 61.154,209.164 75.107 L 209.016 80.560 207.586 80.971 C 206.799 81.197,205.913 81.428,205.616 81.484 C 205.319 81.540,203.618 81.998,201.836 82.502 C 200.054 83.006,198.450 83.431,198.272 83.448 C 197.896 83.482,197.896 83.349,198.279 74.514 C 198.416 71.366,198.596 66.483,198.679 63.662 C 198.762 60.842,198.924 58.443,199.037 58.332 C 199.255 58.118,206.931 55.940,207.465 55.940 C 207.712 55.940,207.775 56.336,207.775 57.871 C 207.775 60.022,207.963 60.388,208.493 59.276 C 210.176 55.748,216.115 53.588,220.518 54.903 M301.957 54.998 C 305.964 56.601,304.428 63.289,297.804 73.077 C 292.375 81.099,291.951 83.507,295.580 85.709 C 296.103 86.026,296.534 86.387,296.537 86.511 C 296.564 87.385,293.219 89.396,290.960 89.865 C 284.430 91.220,281.869 85.626,286.737 80.639 L 287.928 79.420 286.891 79.563 C 283.622 80.012,283.618 80.012,283.489 79.456 C 283.423 79.173,282.971 76.998,282.485 74.622 C 280.772 66.253,279.584 62.340,278.367 61.061 C 277.324 59.964,277.317 60.008,278.672 58.985 C 281.946 56.515,286.741 56.210,288.691 58.349 C 290.060 59.852,290.682 62.057,291.696 69.006 C 292.523 74.677,292.485 74.597,293.375 72.614 C 295.370 68.169,295.800 62.380,294.478 57.743 C 293.887 55.671,298.973 53.804,301.957 54.998 M335.267 55.051 C 335.375 55.159,335.037 56.198,334.482 57.471 C 333.333 60.105,333.292 59.959,335.220 60.153 C 336.940 60.325,337.066 60.460,336.643 61.670 C 336.312 62.616,336.373 62.601,334.006 62.311 L 332.698 62.150 330.249 69.130 C 327.197 77.825,327.096 78.635,328.945 79.592 C 330.626 80.461,328.232 82.494,324.999 82.944 C 320.624 83.552,316.887 81.587,316.328 78.383 C 316.053 76.813,316.907 73.812,320.493 63.742 C 321.830 59.988,321.828 60.304,320.518 60.131 C 319.597 60.009,319.438 59.919,319.438 59.517 C 319.438 58.628,319.894 58.392,322.349 58.005 C 324.919 57.600,328.863 56.391,331.102 55.323 C 332.518 54.648,334.720 54.504,335.267 55.051 M17.863 57.937 C 17.812 58.205,17.769 57.986,17.769 57.451 C 17.769 56.917,17.812 56.698,17.863 56.965 C 17.914 57.233,17.914 57.670,17.863 57.937 M255.685 58.415 C 256.511 58.589,257.756 58.984,258.453 59.294 C 259.607 59.807,260.093 59.874,263.931 60.049 C 266.247 60.155,268.167 60.245,268.197 60.250 C 268.393 60.283,268.125 61.222,267.257 63.543 C 266.308 66.079,265.675 67.828,263.247 74.622 C 261.801 78.666,261.865 80.256,263.505 81.104 C 264.780 81.764,263.146 83.454,260.592 84.116 C 257.124 85.014,253.531 84.039,252.076 81.806 L 251.561 81.015 250.733 81.437 C 247.088 83.297,240.916 82.534,238.970 79.983 C 237.750 78.383,237.483 77.421,237.483 74.622 C 237.486 63.533,245.613 56.297,255.685 58.415 M18.211 59.611 C 18.297 60.260,18.276 60.440,18.148 60.151 C 17.966 59.739,17.842 58.362,18.005 58.549 C 18.047 58.599,18.140 59.077,18.211 59.611 M358.220 59.221 C 355.944 61.352,355.954 77.198,358.231 78.236 C 360.413 79.230,360.942 76.808,360.859 66.199 L 360.799 58.639 359.891 58.573 C 359.114 58.517,358.873 58.611,358.220 59.221 M180.184 59.210 C 182.573 59.362,184.233 59.557,184.233 59.684 C 184.233 59.873,181.493 67.461,180.672 69.546 C 177.697 77.103,177.512 78.618,179.419 79.806 C 180.293 80.350,180.294 80.533,179.428 81.372 C 176.334 84.366,168.777 83.407,167.145 79.815 C 166.216 77.771,166.793 75.254,170.462 65.335 C 170.989 63.909,171.744 61.831,172.140 60.717 L 172.860 58.691 174.497 58.821 C 175.397 58.893,177.956 59.068,180.184 59.210 M53.049 59.935 C 53.201 60.410,53.436 61.232,53.572 61.762 C 53.865 62.896,54.005 62.740,54.536 60.692 C 54.946 59.109,55.078 58.971,56.197 58.967 C 57.475 58.961,57.438 59.323,55.783 62.931 C 55.069 64.487,54.977 64.883,54.973 66.415 L 54.968 68.143 53.942 68.208 L 52.916 68.274 52.916 66.550 C 52.916 65.047,52.822 64.624,52.185 63.245 C 50.334 59.236,50.302 58.910,51.765 59.005 C 52.734 59.069,52.785 59.106,53.049 59.935 M64.187 59.935 C 64.418 61.168,65.660 73.793,65.659 74.892 L 65.659 75.810 64.486 75.810 L 63.314 75.810 63.190 74.676 C 63.121 74.052,63.041 73.153,63.012 72.678 L 62.959 71.814 61.308 71.752 L 59.656 71.689 59.516 74.667 C 59.330 78.597,59.338 78.568,58.405 78.743 C 56.326 79.133,56.378 79.708,57.478 68.467 C 58.507 57.953,58.082 58.941,61.549 59.017 L 64.026 59.071 64.187 59.935 M69.883 59.477 C 70.212 60.787,69.953 61.226,68.811 61.298 C 67.629 61.373,67.395 61.183,67.390 60.140 C 67.384 58.897,69.590 58.310,69.883 59.477 M74.903 59.222 C 75.276 59.595,75.276 78.202,74.903 78.575 C 74.595 78.883,73.460 78.911,73.002 78.623 C 72.753 78.466,72.651 77.781,72.558 75.656 C 72.430 72.684,72.407 72.612,70.839 70.140 L 69.983 68.790 69.980 73.473 C 69.978 78.617,69.926 78.834,68.683 78.834 C 67.373 78.834,67.386 78.922,67.390 70.341 C 67.394 61.547,67.322 61.938,68.911 62.029 L 70.070 62.095 70.321 63.715 C 70.554 65.221,71.782 68.005,72.374 68.371 C 72.489 68.442,72.570 66.702,72.570 64.145 C 72.570 61.562,72.661 59.629,72.794 59.381 C 73.052 58.898,74.472 58.792,74.903 59.222 M82.599 59.449 C 82.655 59.717,82.846 60.616,83.023 61.447 C 83.486 63.627,84.041 67.821,83.898 68.053 C 83.712 68.354,82.073 68.293,81.975 67.981 C 81.929 67.832,81.830 67.342,81.755 66.891 L 81.618 66.071 80.280 66.135 L 78.942 66.199 78.834 67.171 L 78.726 68.143 77.700 68.208 C 76.441 68.289,76.451 68.373,77.207 64.003 C 78.148 58.564,77.891 58.963,80.457 58.963 C 82.398 58.963,82.502 58.987,82.599 59.449 M79.980 60.952 C 79.775 61.214,79.266 63.442,79.266 64.075 C 79.266 64.276,79.590 64.363,80.346 64.363 C 81.579 64.363,81.555 64.428,81.131 62.204 C 80.861 60.788,80.454 60.345,79.980 60.952 M253.194 61.535 C 250.450 63.256,245.964 77.640,247.604 79.457 C 248.511 80.463,249.795 79.680,250.821 77.495 C 252.411 74.111,256.291 62.030,255.910 61.649 C 255.350 61.089,253.996 61.032,253.194 61.535 M60.600 62.041 C 60.479 62.817,59.827 68.777,59.827 69.117 C 59.827 69.237,60.487 69.330,61.342 69.330 L 62.856 69.330 62.740 68.521 C 62.676 68.075,62.481 66.365,62.305 64.720 C 61.947 61.357,61.942 61.339,61.228 61.339 C 60.811 61.339,60.689 61.475,60.600 62.041 M19.950 67.153 C 19.810 67.311,19.708 67.082,19.574 66.307 L 19.442 65.551 19.736 66.307 C 19.897 66.722,19.993 67.103,19.950 67.153 M43.149 72.084 L 43.210 74.730 43.959 74.730 L 44.708 74.730 44.708 72.372 C 44.708 69.400,44.735 69.330,45.893 69.330 L 46.816 69.330 46.921 70.680 C 47.103 73.020,47.097 77.403,46.911 78.078 C 46.519 79.497,44.708 78.959,44.708 77.422 C 44.708 76.464,44.704 76.458,43.952 76.458 C 43.200 76.458,43.197 76.462,43.197 77.434 C 43.197 78.541,42.626 79.008,41.593 78.749 L 41.037 78.609 41.037 73.958 L 41.037 69.307 42.063 69.373 L 43.089 69.438 43.149 72.084 M50.700 72.570 C 50.768 76.605,50.785 76.674,51.724 76.674 C 52.804 76.674,52.916 76.288,52.916 72.573 L 52.916 69.307 53.942 69.373 L 54.968 69.438 55.027 72.942 C 55.110 77.868,54.670 78.660,51.857 78.647 C 48.955 78.633,48.598 78.036,48.597 73.200 C 48.596 69.202,48.570 69.286,49.776 69.374 L 50.648 69.438 50.700 72.570 M83.591 69.884 C 84.088 71.193,83.987 71.274,81.857 71.274 C 79.565 71.274,79.169 71.522,78.931 73.107 C 78.531 75.773,79.221 76.633,81.834 76.720 L 83.693 76.782 83.661 77.490 C 83.556 79.767,78.273 79.240,77.194 76.845 C 76.211 74.660,76.796 70.979,78.317 69.783 C 79.278 69.027,83.294 69.104,83.591 69.884 M91.729 71.706 C 92.479 75.277,92.790 78.401,92.419 78.636 C 91.429 79.262,90.565 78.729,90.459 77.427 L 90.389 76.566 89.060 76.502 L 87.732 76.438 87.585 77.509 C 87.424 78.678,86.973 78.988,85.844 78.704 C 85.203 78.543,85.189 78.772,86.193 73.129 C 86.901 69.150,86.767 69.312,89.309 69.383 L 91.253 69.438 91.729 71.706 M88.353 72.624 C 88.212 73.367,88.047 74.144,87.986 74.352 C 87.891 74.679,88.033 74.730,89.043 74.730 L 90.209 74.730 90.026 73.380 C 89.656 70.663,88.799 70.276,88.353 72.624 M22.317 73.053 C 22.436 73.525,22.430 73.527,22.127 73.123 C 21.781 72.659,21.709 72.263,22.004 72.446 C 22.109 72.511,22.250 72.784,22.317 73.053 M65.835 77.391 C 65.918 78.399,65.592 78.834,64.754 78.834 C 63.630 78.834,63.283 78.498,63.283 77.411 L 63.283 76.436 64.525 76.501 L 65.767 76.566 65.835 77.391 M25.269 78.510 C 25.836 79.591,25.201 78.776,24.442 77.448 C 24.026 76.720,24.014 76.660,24.377 77.106 C 24.619 77.403,25.020 78.035,25.269 78.510 M81.989 79.607 C 81.916 79.795,81.857 80.524,81.857 81.227 C 81.857 82.389,81.815 82.505,81.396 82.505 C 80.930 82.505,80.860 80.222,81.304 79.504 C 81.540 79.122,82.140 79.212,81.989 79.607 M41.301 80.614 L 41.889 81.317 41.895 80.598 C 41.905 79.334,42.434 79.926,42.505 81.281 C 42.578 82.649,42.365 82.814,41.537 82.036 L 41.037 81.566 41.037 82.036 C 41.037 82.361,40.904 82.505,40.605 82.505 C 40.227 82.505,40.173 82.361,40.173 81.353 C 40.173 79.689,40.402 79.538,41.301 80.614 M43.632 80.724 C 43.634 81.169,43.731 81.679,43.848 81.857 C 44.160 82.334,44.485 81.760,44.489 80.724 C 44.491 80.149,44.587 79.914,44.816 79.914 C 45.382 79.914,45.263 82.208,44.681 82.520 C 43.761 83.013,43.197 82.475,43.197 81.106 C 43.197 80.450,43.294 79.914,43.413 79.914 C 43.531 79.914,43.630 80.278,43.632 80.724 M47.516 80.238 C 47.516 80.439,47.312 80.562,46.976 80.562 C 46.304 80.562,46.261 80.939,46.922 81.032 C 47.515 81.117,47.484 81.507,46.877 81.602 C 46.251 81.701,46.329 82.073,46.976 82.073 C 47.273 82.073,47.516 82.171,47.516 82.289 C 47.516 82.408,47.127 82.505,46.652 82.505 L 45.788 82.505 45.788 81.210 L 45.788 79.914 46.652 79.914 C 47.276 79.914,47.516 80.004,47.516 80.238 M48.724 80.599 L 49.078 81.285 49.367 80.599 C 49.991 79.114,50.317 79.877,49.742 81.479 C 49.249 82.855,48.789 82.831,48.193 81.397 C 47.518 79.772,47.956 79.115,48.724 80.599 M52.700 80.346 C 53.454 81.100,53.156 82.344,52.161 82.594 C 51.172 82.842,50.148 81.889,50.434 80.987 C 50.779 79.900,51.929 79.575,52.700 80.346 M57.657 80.124 C 58.838 80.756,58.207 82.505,56.798 82.505 L 55.940 82.505 55.940 81.210 L 55.940 79.914 56.602 79.914 C 56.966 79.914,57.441 80.008,57.657 80.124 M60.475 80.238 C 60.475 80.416,60.287 80.562,60.056 80.562 C 59.825 80.562,59.577 80.659,59.503 80.778 C 59.428 80.900,59.609 80.994,59.922 80.994 C 60.270 80.994,60.475 81.114,60.475 81.317 C 60.475 81.519,60.271 81.641,59.935 81.641 C 59.638 81.641,59.395 81.739,59.395 81.857 C 59.395 81.976,59.638 82.073,59.935 82.073 C 60.232 82.073,60.475 82.171,60.475 82.289 C 60.475 82.408,60.086 82.505,59.611 82.505 L 58.747 82.505 58.747 81.210 L 58.747 79.914 59.611 79.914 C 60.235 79.914,60.475 80.004,60.475 80.238 M62.601 80.430 C 62.662 80.753,62.583 80.814,62.225 80.721 C 61.658 80.573,61.620 80.916,62.183 81.095 C 62.992 81.352,62.971 82.367,62.153 82.581 C 61.669 82.708,60.907 82.401,60.907 82.079 C 60.907 81.772,61.294 81.610,61.445 81.854 C 61.520 81.975,61.686 82.073,61.815 82.073 C 61.944 82.073,61.793 81.835,61.479 81.544 C 60.831 80.944,60.821 80.909,61.138 80.318 C 61.437 79.758,62.489 79.839,62.601 80.430 M64.923 80.162 C 65.008 80.299,64.916 80.529,64.720 80.672 C 64.501 80.832,64.363 81.237,64.363 81.719 C 64.363 82.361,64.284 82.505,63.931 82.505 C 63.572 82.505,63.499 82.361,63.499 81.652 C 63.499 81.086,63.380 80.732,63.145 80.601 C 62.950 80.492,62.858 80.292,62.941 80.158 C 63.139 79.838,64.725 79.841,64.923 80.162 M66.047 81.281 C 66.106 82.392,66.071 82.505,65.670 82.505 C 65.279 82.505,65.227 82.371,65.227 81.353 C 65.227 79.415,65.945 79.351,66.047 81.281 M67.632 80.616 L 68.233 81.317 68.242 80.598 C 68.257 79.338,68.784 79.924,68.855 81.281 C 68.928 82.649,68.715 82.814,67.886 82.036 L 67.387 81.566 67.387 82.036 C 67.387 82.361,67.254 82.505,66.955 82.505 C 66.577 82.505,66.523 82.361,66.523 81.353 C 66.523 79.692,66.726 79.557,67.632 80.616 M71.580 80.325 C 71.817 80.587,71.927 80.998,71.883 81.453 C 71.724 83.101,69.511 83.046,69.373 81.390 C 69.266 80.112,70.742 79.400,71.580 80.325 M75.722 80.162 C 75.807 80.299,75.715 80.529,75.519 80.672 C 75.300 80.832,75.162 81.237,75.162 81.719 C 75.162 82.361,75.083 82.505,74.730 82.505 C 74.371 82.505,74.298 82.361,74.298 81.652 C 74.298 81.086,74.179 80.732,73.944 80.601 C 73.749 80.492,73.657 80.292,73.741 80.158 C 73.938 79.838,75.524 79.841,75.722 80.162 M76.848 81.078 C 76.935 82.418,77.406 82.295,77.496 80.909 C 77.586 79.520,78.058 79.712,78.143 81.172 C 78.202 82.185,78.158 82.311,77.666 82.536 C 76.768 82.945,76.026 82.310,76.026 81.133 C 76.026 79.508,76.743 79.461,76.848 81.078 M80.438 80.253 C 80.840 80.655,80.843 80.683,80.554 81.224 C 80.399 81.514,80.401 81.774,80.562 82.073 C 80.758 82.441,80.726 82.505,80.346 82.505 C 80.101 82.505,79.844 82.360,79.776 82.181 C 79.707 82.003,79.565 81.857,79.459 81.857 C 79.352 81.857,79.266 82.003,79.266 82.181 C 79.266 82.360,79.168 82.505,79.050 82.505 C 78.930 82.505,78.834 81.929,78.834 81.210 C 78.834 79.806,79.559 79.374,80.438 80.253 M83.983 80.430 C 84.044 80.753,83.965 80.814,83.607 80.721 C 82.977 80.556,83.038 80.871,83.693 81.170 C 84.485 81.531,84.173 82.721,83.287 82.721 C 82.758 82.721,82.163 82.121,82.427 81.853 C 82.602 81.676,82.714 81.672,82.818 81.839 C 82.898 81.968,83.078 82.073,83.218 82.073 C 83.358 82.073,83.207 81.827,82.881 81.525 C 82.208 80.901,82.208 80.901,82.520 80.318 C 82.820 79.758,83.871 79.839,83.983 80.430 M86.305 80.162 C 86.390 80.299,86.298 80.529,86.102 80.672 C 85.883 80.832,85.745 81.237,85.745 81.719 C 85.745 82.361,85.666 82.505,85.313 82.505 C 84.954 82.505,84.881 82.361,84.881 81.652 C 84.881 81.086,84.762 80.732,84.527 80.601 C 84.332 80.492,84.241 80.292,84.324 80.158 C 84.521 79.838,86.107 79.841,86.305 80.162 M87.430 81.281 C 87.482 82.271,87.430 82.505,87.160 82.505 C 86.894 82.505,86.825 82.234,86.825 81.192 C 86.825 79.447,87.337 79.522,87.430 81.281 M90.022 80.173 C 90.428 80.579,90.347 81.067,89.903 80.885 C 89.251 80.617,88.945 80.657,88.694 81.043 C 88.326 81.612,89.040 82.278,89.626 81.912 C 90.206 81.550,90.490 82.034,89.936 82.440 C 89.119 83.038,87.905 82.393,87.905 81.362 C 87.905 80.187,89.269 79.420,90.022 80.173 M92.910 80.271 C 93.141 80.481,93.305 80.925,93.305 81.346 C 93.305 82.681,91.605 83.128,90.816 82.001 C 89.929 80.735,91.756 79.227,92.910 80.271 M51.311 80.901 C 50.934 81.279,51.192 82.073,51.692 82.073 C 52.044 82.073,52.484 81.633,52.484 81.282 C 52.484 80.782,51.689 80.523,51.311 80.901 M56.731 80.706 C 56.444 80.993,56.581 82.073,56.904 82.073 C 57.440 82.073,57.721 81.294,57.328 80.901 C 56.941 80.514,56.927 80.510,56.731 80.706 M70.181 81.019 C 69.886 81.569,70.380 82.214,70.934 82.002 C 71.376 81.832,71.375 80.862,70.933 80.693 C 70.454 80.509,70.453 80.510,70.181 81.019 M91.623 80.818 C 91.268 81.172,91.293 81.533,91.696 81.866 C 92.174 82.264,92.867 81.591,92.530 81.056 C 92.226 80.575,91.940 80.500,91.623 80.818 M29.047 83.768 C 28.989 83.826,28.917 83.833,28.888 83.783 C 28.858 83.734,28.591 83.402,28.295 83.045 L 27.755 82.397 28.454 83.030 C 28.839 83.377,29.106 83.709,29.047 83.768 M33.045 88.068 C 33.045 88.283,31.813 87.053,30.395 85.421 C 29.269 84.125,29.364 84.197,31.063 85.921 C 32.153 87.028,33.045 87.994,33.045 88.068 M36.069 90.678 C 36.247 90.857,36.004 90.703,35.529 90.337 C 35.054 89.971,34.325 89.300,33.909 88.847 C 33.244 88.122,35.029 89.635,36.069 90.678 M268.826 89.777 C 268.543 90.060,268.690 90.238,269.114 90.127 C 269.352 90.065,269.546 89.929,269.546 89.824 C 269.546 89.600,269.036 89.567,268.826 89.777 M255.110 91.116 C 254.767 92.259,254.793 92.873,255.184 92.873 C 255.436 92.873,255.508 92.585,255.508 91.577 C 255.508 90.058,255.447 89.989,255.110 91.116 M40.952 93.966 C 41.606 94.340,42.095 94.694,42.037 94.752 C 41.891 94.898,37.957 92.330,37.451 91.759 C 37.226 91.504,37.653 91.743,38.401 92.290 C 39.149 92.837,40.297 93.591,40.952 93.966 M84.017 98.426 C 83.839 98.492,83.523 98.634,83.315 98.741 C 83.083 98.861,82.937 98.855,82.937 98.728 C 82.937 98.517,83.428 98.329,84.017 98.314 C 84.305 98.307,84.305 98.320,84.017 98.426 M80.454 99.568 C 80.216 99.670,79.876 99.754,79.698 99.754 C 79.493 99.754,79.533 99.685,79.806 99.568 C 80.043 99.466,80.383 99.382,80.562 99.382 C 80.766 99.382,80.726 99.451,80.454 99.568 M78.402 100.133 C 77.867 100.302,77.284 100.406,77.106 100.365 C 76.928 100.324,77.219 100.187,77.754 100.060 C 79.150 99.730,79.542 99.774,78.402 100.133 M56.911 100.319 C 57.505 100.472,57.797 100.599,57.559 100.602 C 57.322 100.604,56.641 100.482,56.048 100.329 C 55.454 100.176,55.162 100.049,55.400 100.046 C 55.637 100.044,56.317 100.166,56.911 100.319 M60.457 101.000 C 60.627 101.151,59.287 101.037,58.747 100.853 C 58.383 100.730,58.559 100.710,59.287 100.795 C 59.881 100.863,60.408 100.955,60.457 101.000 M74.838 100.864 C 74.600 100.966,74.066 101.043,73.650 101.034 L 72.894 101.019 73.758 100.864 C 74.980 100.645,75.347 100.645,74.838 100.864 " stroke="none" fill="#000000" fill-rule="evenodd">
</path>
</g></svg>